<svg xmlns="http://www.w3.org/2000/svg" xmlns:xlink="http://www.w3.org/1999/xlink" fill="none" version="1.1" width="271" height="271" viewBox="0 0 271 271"><defs><clipPath id="master_svg0_162_233"><rect x="0" y="0" width="271" height="271" rx="0"/></clipPath></defs><g clip-path="url(#master_svg0_162_233)"><g style="opacity:0.9900000095367432;"><path d="" fill="#94DDEB" fill-opacity="0"/><path d="M218.506,159.91608203125Q226.036,162.54208203125,230.287,168.38308203125Q234.735,174.49308203125,235.959,177.03008203125L238.82,182.96208203125L238.608,47.876182031249996Q238.608,35.59888203125,228.695,28.32041203125Q218.784,21.04453203125,206.973,24.65097203125L112.8971,54.579082031249996Q105.19865,56.90198203125,100.39256,63.37678203125Q95.586475,69.85158203124999,95.591805,77.91528203125L94.99392,185.08608203125L96.034806,185.42608203125Q103.91601,187.99708203125,108.2958,193.89408203125Q112.886,200.07508203125,113.9644,202.18308203125L116.8087,207.74308203125L116.6585,102.75378203125Q116.6585,100.20388203125,119.0406,99.57698203125L119.0779,99.56718203125L213.24099999999999,69.53448203125001Q213.928,69.36478203125,214.186,69.36478203125Q217.542,69.36478203125,217.542,72.72018203125L217.499,159.56508203125L218.506,159.91608203125ZM235.801,171.00208203125Q234.504,169.07808203125,232.713,166.61708203125Q228.201,160.41808203125,220.501,157.45308203125L220.542,72.72018203125Q220.542,69.95488203125001,218.52100000000002,68.08928203125001Q216.652,66.36478203125,214.186,66.36478203125Q213.55,66.36478203125,212.46800000000002,66.63528203125L212.46800000000002,66.63538203125L212.421,66.64698203124999L118.2384,96.68608203125Q113.6585,97.91168203125,113.6585,102.75808203125L113.7925,196.36808203125Q112.5043,194.52908203125,110.7042,192.10608203125Q106.05169000000001,185.84108203125,98.00598,182.93208203125L98.5918,77.91328203124999Q98.58713,70.84248203125,102.80147,65.16488203125Q107.0158,59.48718203125,113.8066,57.43788203125L207.849,27.52020203125Q218.22199999999998,24.35310003125,226.919,30.73865203125Q235.609,37.11808203125,235.608,47.880882031249996L235.801,171.00208203125Z" fill-rule="evenodd" fill="#FFFFFF" fill-opacity="1"/></g><g style="opacity:0.9900000095367432;"><path d="" fill="#A0D8FF" fill-opacity="0"/><path d="M216.05459375,155.98999884375Q200.57589375,151.45532484375,183.73579375,157.95640484375Q166.89579375,164.45748484375,158.47939374999999,178.21681484375Q149.94150375,192.17481484375,155.04979275,205.38931484375001Q160.14567375000001,218.60711484375,175.84789375,223.20721484375Q191.32669375,227.74191484375,208.16669375,221.24091484375Q225.00679374999999,214.73981484375,233.42309375000002,200.98041484375Q241.96089375,187.02241484375,236.85279375,173.80801484375002Q231.75679374999999,160.59014484375,216.05459375,155.98999884375ZM161.03858375,179.78221484375Q168.92449375,166.89011484375,184.81629375,160.75509484375Q200.70799375,154.62012484375,215.21119375,158.86899484375Q229.49089375,163.05239484375,234.05459374999998,174.88961484375Q238.62829375,186.72151484375001,230.86389375,199.41501484375Q222.97799375,212.30721484375,207.08629375,218.44221484375Q191.19459375,224.57711484375,176.69129375,220.32821484375Q162.41162375,216.14491484375,157.84799375,204.30761484375Q153.27417375,192.47571484374998,161.03858375,179.78221484375Z" fill-rule="evenodd" fill="#FFFFFF" fill-opacity="1"/></g><g style="opacity:0.9900000095367432;"><path d="" fill="#A0D8FF" fill-opacity="0"/><path d="M94.0610890625,181.408175859375Q78.5849890625,176.877090859375,61.7485890625,183.376770859375Q44.9121890625,189.876450859375,36.4953790625,203.631280859375Q27.9571190625,217.584780859375,33.0583150625,230.798580859375Q38.1595090625,244.012480859375,53.8588890625,248.60898085937498Q69.3349890625,253.14008085937502,86.1713890625,246.640380859375Q103.0077890625,240.140780859375,111.4245890625,226.385780859375Q119.9628890625,212.432380859375,114.8616890625,199.218580859375Q109.7605890625,186.004670859375,94.0610890625,181.408175859375ZM39.054309062499996,205.197180859375Q46.9406890625,192.309180859375,62.8289890625,186.175460859375Q78.71738906249999,180.041780859375,93.2180890625,184.287310859375Q107.4954890625,188.467450859375,112.0629890625,200.298980859375Q116.6305890625,212.130480859375,108.8656890625,224.819980859375Q100.9793890625,237.708080859375,85.0909890625,243.841680859375Q69.20258906250001,249.97538085937498,54.7018890625,245.729880859375Q40.4245390625,241.549680859375,35.8570090625,229.718180859375Q31.2894590625,217.886680859375,39.054309062499996,205.197180859375Z" fill-rule="evenodd" fill="#FFFFFF" fill-opacity="1"/></g></g></svg>